# Blender v2.79 (sub 0) OBJ File: 'airplane_larger.blend'
# www.blender.org
mtllib plane_highlight.mtl
o Cube.001_Cube.000
v -0.541207 0.100000 0.202105
v -0.541207 -0.100000 0.202105
v 0.859214 0.099997 0.121711
v 0.859343 -0.100003 0.121741
v 1.873636 0.099995 0.116311
v 1.874538 -0.099058 0.116643
v 1.873605 0.100012 0.989848
v 1.874535 -0.099041 0.990184
v -1.798844 0.100000 -0.950015
v -1.798844 -0.100000 -0.950015
v -1.087175 -0.100000 -0.985177
v -1.087175 0.100000 -0.985177
v -1.510143 0.100000 0.127006
v -1.510143 -0.100000 0.127006
v -0.759047 -0.100000 0.121867
v -1.387559 -0.100000 0.829591
v -0.571166 -0.099997 0.990364
v -1.387559 0.100000 0.829591
v -2.234032 0.100000 0.604561
v -0.571140 0.100003 0.990366
v -2.234032 -0.100000 0.604561
v -2.581809 -0.100000 -0.408517
v -2.581809 0.100000 -0.408517
v -2.064522 0.100000 -0.428291
v -2.064522 -0.100000 -0.428291
v 2.107825 0.099998 0.169898
v 2.108928 -0.099055 0.170283
v 2.108067 0.100014 0.936186
v 2.109166 -0.099039 0.936473
v 2.268665 0.100000 0.227467
v 2.268844 -0.100000 0.227548
v 2.268873 0.100005 0.878594
v 2.269048 -0.099995 0.878514
v 2.386030 0.100000 0.292616
v 2.386030 -0.100000 0.292616
v 2.386030 0.100000 0.813538
v 2.386030 -0.100000 0.813538
v 2.489877 0.100000 0.361789
v 2.489877 -0.100000 0.361789
v 2.489877 0.100000 0.744366
v 2.489877 -0.100000 0.744366
v 2.540570 0.100000 0.397136
v 2.540570 -0.100000 0.397136
v 2.540570 0.100000 0.709019
v 2.540570 -0.100000 0.709019
v 2.582265 0.100000 0.442143
v 2.582265 -0.100000 0.442143
v 2.582265 0.100000 0.664011
v 2.582265 -0.100000 0.664011
v 2.620964 0.100000 0.513559
v 2.620964 -0.100000 0.513559
v 2.620964 -0.100000 0.592596
v 2.620964 0.100000 0.592596
v -0.759047 0.100000 0.121867
vn -0.0000 1.0000 -0.0000
vn 0.0000 -1.0000 0.0000
vn -0.0059 -1.0000 0.0000
vn 0.0004 -1.0000 0.0003
vn -0.0052 -0.0009 -1.0000
vn 0.0001 0.0008 1.0000
vn 0.2231 0.0027 0.9748
vn -0.0493 0.0000 -0.9988
vn -0.7178 0.0000 0.6963
vn 0.4943 0.0001 -0.8693
vn -0.0068 0.0000 -1.0000
vn -0.1932 0.0000 0.9812
vn -0.2569 0.0000 0.9664
vn -0.9458 0.0000 0.3247
vn 0.7077 0.0000 -0.7065
vn -0.0382 0.0000 -0.9993
vn 0.2231 -0.0006 -0.9748
vn 0.4854 0.0000 -0.8743
vn 0.3371 -0.0000 -0.9415
vn 0.3390 0.0016 0.9408
vn 0.5544 0.0000 0.8323
vn 0.4855 0.0000 0.8742
vn 0.5544 0.0000 -0.8323
vn 0.7336 0.0000 0.6796
vn 0.5720 0.0000 -0.8203
vn 0.5720 0.0000 0.8203
vn 0.7336 0.0000 -0.6796
vn 1.0000 0.0000 0.0000
vn 0.8792 0.0000 -0.4764
vn 0.8792 0.0000 0.4764
usemtl Material.001
s off
f 19//1 18//1 20//1 1//1 54//1 13//1 24//1 23//1
f 38//1 40//1 44//1 42//1
f 12//1 9//1 54//1 1//1 3//1
f 7//1 28//1 26//1 5//1
f 28//1 32//1 30//1 26//1
f 29//2 8//2 6//2 27//2
f 29//3 27//3 31//3 33//3
f 36//1 40//1 38//1 34//1
f 7//1 5//1 3//1 1//1 20//1
f 33//2 31//2 35//2 37//2
f 36//1 34//1 30//1 32//1
f 41//2 37//2 35//2 39//2
f 46//1 48//1 53//1 50//1
f 6//4 8//4 17//4 2//4 4//4
f 51//2 52//2 49//2 47//2
f 39//2 43//2 45//2 41//2
f 49//2 45//2 43//2 47//2
f 44//1 48//1 46//1 42//1
f 2//2 17//2 16//2 21//2 22//2 25//2 14//2 15//2
f 4//5 3//5 5//5 6//5
f 17//6 8//6 7//6 20//6
f 7//7 8//7 29//7 28//7
f 10//8 9//8 12//8 11//8
f 15//9 54//9 9//9 10//9
f 3//10 4//10 11//10 12//10
f 54//11 15//11 14//11 13//11
f 20//12 18//12 16//12 17//12
f 16//13 18//13 19//13 21//13
f 21//14 19//14 23//14 22//14
f 13//15 14//15 25//15 24//15
f 22//16 23//16 24//16 25//16
f 6//17 5//17 26//17 27//17
f 31//18 30//18 34//18 35//18
f 27//19 26//19 30//19 31//19
f 28//20 29//20 33//20 32//20
f 36//21 37//21 41//21 40//21
f 32//22 33//22 37//22 36//22
f 35//23 34//23 38//23 39//23
f 44//24 45//24 49//24 48//24
f 39//25 38//25 42//25 43//25
f 40//26 41//26 45//26 44//26
f 43//27 42//27 46//27 47//27
f 51//28 50//28 53//28 52//28
f 47//29 46//29 50//29 51//29
f 48//30 49//30 52//30 53//30
f 10//2 11//2 4//2 2//2 15//2
