<?xml version="1.0" encoding="UTF-8" standalone="no"?>
<svg
   xmlns:dc="http://purl.org/dc/elements/1.1/"
   xmlns:cc="http://creativecommons.org/ns#"
   xmlns:rdf="http://www.w3.org/1999/02/22-rdf-syntax-ns#"
   xmlns:svg="http://www.w3.org/2000/svg"
   xmlns="http://www.w3.org/2000/svg"
   xmlns:sodipodi="http://sodipodi.sourceforge.net/DTD/sodipodi-0.dtd"
   xmlns:inkscape="http://www.inkscape.org/namespaces/inkscape"
   version="1.1"
   viewBox="0.0 0.0 348.0 348.0"
   fill="none"
   stroke="none"
   stroke-linecap="square"
   stroke-miterlimit="10"
   id="svg3899"
   sodipodi:docname="NeedyAirTrafficControllerComponent.svg"
   inkscape:version="0.92.3 (2405546, 2018-03-11)">
  <metadata
     id="metadata3905">
    <rdf:RDF>
      <cc:Work
         rdf:about="">
        <dc:format>image/svg+xml</dc:format>
        <dc:type
           rdf:resource="http://purl.org/dc/dcmitype/StillImage" />
      </cc:Work>
    </rdf:RDF>
  </metadata>
  <defs
     id="defs3903" />
  <sodipodi:namedview
     pagecolor="#ffffff"
     bordercolor="#666666"
     borderopacity="1"
     objecttolerance="10"
     gridtolerance="10"
     guidetolerance="10"
     inkscape:pageopacity="0"
     inkscape:pageshadow="2"
     inkscape:window-width="1920"
     inkscape:window-height="1028"
     id="namedview3901"
     showgrid="false"
     inkscape:zoom="1.7454159"
     inkscape:cx="107.99983"
     inkscape:cy="187.34067"
     inkscape:window-x="-8"
     inkscape:window-y="-8"
     inkscape:window-maximized="1"
     inkscape:current-layer="svg3899" />
  <clipPath
     id="p.0">
    <path
       d="m0 0l348.0 0l0 348.0l-348.0 0l0 -348.0z"
       clip-rule="nonzero"
       id="path3810" />
  </clipPath>
  <path
     style="fill:#000000;fill-opacity:0;fill-rule:nonzero"
     inkscape:connector-curvature="0"
     id="path3813"
     d="M 0,0 H 348 V 348 H 0 Z" />
  <path
     style="fill:#ffffff;fill-rule:nonzero"
     inkscape:connector-curvature="0"
     id="path3815"
     d="M -6,0 H 348.01575 V 347.9685 H -6 Z" />
  <path
     style="fill:#000000;fill-opacity:0;fill-rule:nonzero"
     inkscape:connector-curvature="0"
     id="path3817"
     d="m 5.07874,5.7758217 h 336.9134 V 343.44512 H 5.07874 Z" />
  <path
     style="fill-rule:nonzero;stroke:#000000;stroke-width:2;stroke-linecap:butt;stroke-linejoin:round"
     inkscape:connector-curvature="0"
     id="path3819"
     d="m 5.07874,5.7758217 h 336.9134 V 343.44512 H 5.07874 Z" />
  <path
     style="fill:#000000;fill-rule:nonzero"
     inkscape:connector-curvature="0"
     id="path3821"
     d="m 133.84251,15.666667 h 74.33072 v 56.881886 h -74.33072 z" />
  <path
     style="fill:#ffffff;fill-rule:nonzero"
     inkscape:connector-curvature="0"
     id="path3823"
     d="m 154.53912,44.089794 q 0,-4.0625 0.82812,-6.53125 0.84375,-2.484375 2.48438,-3.828125 1.65625,-1.34375 4.15625,-1.34375 1.84375,0 3.23437,0.75 1.39063,0.734375 2.29688,2.140625 0.90625,1.390625 1.42187,3.40625 0.51563,2 0.51563,5.40625 0,4.03125 -0.82813,6.515625 -0.82812,2.46875 -2.48437,3.828125 -1.64063,1.34375 -4.15625,1.34375 -3.3125,0 -5.20313,-2.375 -2.26562,-2.859375 -2.26562,-9.3125 z m 2.89062,0 q 0,5.640625 1.3125,7.515625 1.32813,1.859375 3.26563,1.859375 1.9375,0 3.25,-1.875 1.32812,-1.875 1.32812,-7.5 0,-5.65625 -1.32812,-7.515625 -1.3125,-1.859375 -3.28125,-1.859375 -1.9375,0 -3.09375,1.640625 -1.45313,2.09375 -1.45313,7.734375 z m 14.90625,0 q 0,-4.0625 0.82813,-6.53125 0.84375,-2.484375 2.48437,-3.828125 1.65625,-1.34375 4.15625,-1.34375 1.84375,0 3.23438,0.75 1.39062,0.734375 2.29687,2.140625 0.90625,1.390625 1.42188,3.40625 0.51562,2 0.51562,5.40625 0,4.03125 -0.82812,6.515625 -0.82813,2.46875 -2.48438,3.828125 -1.64062,1.34375 -4.15625,1.34375 -3.3125,0 -5.20312,-2.375 -2.26563,-2.859375 -2.26563,-9.3125 z m 2.89063,0 q 0,5.640625 1.3125,7.515625 1.32812,1.859375 3.26562,1.859375 1.9375,0 3.25,-1.875 1.32813,-1.875 1.32813,-7.5 0,-5.65625 -1.32813,-7.515625 -1.3125,-1.859375 -3.28125,-1.859375 -1.9375,0 -3.09375,1.640625 -1.45312,2.09375 -1.45312,7.734375 z" />
  <path
     style="fill:#ffffff;fill-rule:nonzero"
     inkscape:connector-curvature="0"
     id="path3825"
     d="M 15.262467,17.706038 H 125.15223 v 54.83464 H 15.262467 Z" />
  <path
     style="fill-rule:nonzero;stroke:#000000;stroke-width:2;stroke-linecap:butt;stroke-linejoin:round"
     inkscape:connector-curvature="0"
     id="path3827"
     d="M 15.262467,17.706038 H 125.15223 v 54.83464 H 15.262467 Z" />
  <path
     style="fill:#000000;fill-opacity:0;fill-rule:nonzero"
     inkscape:connector-curvature="0"
     id="path3829"
     d="M 15.262467,72.65354 54.947507,18.5748" />
  <path
     style="fill-rule:nonzero;stroke:#000000;stroke-width:2;stroke-linecap:butt;stroke-linejoin:round"
     inkscape:connector-curvature="0"
     id="path3831"
     d="M 15.262467,72.65354 54.947507,18.5748" />
  <path
     style="fill:#000000;fill-opacity:0;fill-rule:nonzero"
     inkscape:connector-curvature="0"
     id="path3833"
     d="M 37.56649,72.65354 77.251533,18.5748" />
  <path
     style="fill-rule:nonzero;stroke:#000000;stroke-width:2;stroke-linecap:butt;stroke-linejoin:round"
     inkscape:connector-curvature="0"
     id="path3835"
     d="M 37.56649,72.65354 77.251533,18.5748" />
  <path
     style="fill:#000000;fill-opacity:0;fill-rule:nonzero"
     inkscape:connector-curvature="0"
     id="path3837"
     d="M 59.870514,72.65354 99.555557,18.5748" />
  <path
     style="fill-rule:nonzero;stroke:#000000;stroke-width:2;stroke-linecap:butt;stroke-linejoin:round"
     inkscape:connector-curvature="0"
     id="path3839"
     d="M 59.870514,72.65354 99.555557,18.5748" />
  <path
     style="fill:#000000;fill-opacity:0;fill-rule:nonzero"
     inkscape:connector-curvature="0"
     id="path3841"
     d="M 82.17454,72.65354 121.85958,18.5748" />
  <path
     style="fill-rule:nonzero;stroke:#000000;stroke-width:2;stroke-linecap:butt;stroke-linejoin:round"
     inkscape:connector-curvature="0"
     id="path3843"
     d="M 82.17454,72.65354 121.85958,18.5748" />
  <path
     style="fill:#ffffff;fill-rule:nonzero"
     inkscape:connector-curvature="0"
     id="path3849"
     d="m 216.86351,16.633858 h 109.88975 v 54.83465 H 216.86351 Z" />
  <path
     style="fill-rule:nonzero;stroke:#000000;stroke-width:2;stroke-linecap:butt;stroke-linejoin:round"
     inkscape:connector-curvature="0"
     id="path3851"
     d="m 216.86351,16.633858 h 109.88975 v 54.83465 H 216.86351 Z" />
  <path
     style="fill:#000000;fill-opacity:0;fill-rule:nonzero"
     inkscape:connector-curvature="0"
     id="path3853"
     d="M 216.86351,71.58137 256.54855,17.502627" />
  <path
     style="fill-rule:nonzero;stroke:#000000;stroke-width:2;stroke-linecap:butt;stroke-linejoin:round"
     inkscape:connector-curvature="0"
     id="path3855"
     d="M 216.86351,71.58137 256.54855,17.502627" />
  <path
     style="fill:#000000;fill-opacity:0;fill-rule:nonzero"
     inkscape:connector-curvature="0"
     id="path3857"
     d="M 239.16754,71.58137 278.85257,17.502627" />
  <path
     style="fill-rule:nonzero;stroke:#000000;stroke-width:2;stroke-linecap:butt;stroke-linejoin:round"
     inkscape:connector-curvature="0"
     id="path3859"
     d="M 239.16754,71.58137 278.85257,17.502627" />
  <path
     style="fill:#000000;fill-opacity:0;fill-rule:nonzero"
     inkscape:connector-curvature="0"
     id="path3861"
     d="M 261.47156,71.58137 301.15662,17.502627" />
  <path
     style="fill-rule:nonzero;stroke:#000000;stroke-width:2;stroke-linecap:butt;stroke-linejoin:round"
     inkscape:connector-curvature="0"
     id="path3863"
     d="M 261.47156,71.58137 301.15662,17.502627" />
  <path
     style="fill:#000000;fill-opacity:0;fill-rule:nonzero"
     inkscape:connector-curvature="0"
     id="path3865"
     d="M 283.7756,71.58137 323.46063,17.502627" />
  <path
     style="fill-rule:nonzero;stroke:#000000;stroke-width:2;stroke-linecap:butt;stroke-linejoin:round"
     inkscape:connector-curvature="0"
     id="path3867"
     d="M 283.7756,71.58137 323.46063,17.502627" />
  <path
     style="fill:#000000;fill-opacity:0;fill-rule:nonzero"
     inkscape:connector-curvature="0"
     id="path3873"
     d="m 113.77165,267.51697 h 49.25984 v 45.48032 h -49.25984 z" />
  <path
     style="fill:#000000;fill-opacity:0;fill-rule:nonzero"
     inkscape:connector-curvature="0"
     id="path3879"
     d="m 182.79527,267.51697 h 49.25984 v 45.48032 h -49.25984 z" />
  <path
     style="fill:#ffffff;fill-rule:nonzero"
     inkscape:connector-curvature="0"
     id="path3885"
     d="m 260.08136,270.74014 h 36.72443 v 25.63782 h -36.72443 z" />
  <path
     style="fill:#ffffff;fill-rule:nonzero"
     inkscape:connector-curvature="0"
     id="path3889"
     d="m 265.46457,305.50656 v 0 c 0,-2.35699 1.91071,-4.26773 4.2677,-4.26773 v 0 c 1.1319,0 2.21741,0.44965 3.01773,1.25 0.80035,0.80035 1.25,1.88586 1.25,3.01773 v 0 c 0,2.35699 -1.91074,4.26773 -4.26773,4.26773 v 0 c -2.35699,0 -4.2677,-1.91074 -4.2677,-4.26773 z" />
  <path
     style="fill:#ffffff;fill-rule:nonzero"
     inkscape:connector-curvature="0"
     id="path3893"
     d="m 282.8084,305.50656 v 0 c 0,-2.35699 1.91071,-4.26773 4.2677,-4.26773 v 0 c 1.13187,0 2.21738,0.44965 3.01773,1.25 0.80035,0.80035 1.25,1.88586 1.25,3.01773 v 0 c 0,2.35699 -1.91074,4.26773 -4.26773,4.26773 v 0 c -2.35699,0 -4.2677,-1.91074 -4.2677,-4.26773 z" />
  <rect
     id="rect3949"
     width="92.971504"
     height="50.020634"
     x="19.014248"
     y="96.965118"
     style="fill:none;fill-opacity:1;stroke:#000000;stroke-width:2.02849722;stroke-miterlimit:10;stroke-dasharray:none;stroke-opacity:1;paint-order:fill markers stroke" />
  <g
     inkscape:label="RenderLayer_LineSet"
     id="RenderLayer_LineSet"
     transform="matrix(0.87012142,0,0,0.87012145,-422.82983,-181.88519)"
     style="fill:#000000;fill-opacity:1;stroke:#000000;stroke-width:1.1509124;stroke-miterlimit:10;stroke-dasharray:none;stroke-opacity:1">
    <g
       inkscape:label="strokes"
       inkscape:groupmode="layer"
       id="strokes"
       style="fill:#000000;fill-opacity:1;stroke:#000000;stroke-width:1.1509124;stroke-miterlimit:10;stroke-dasharray:none;stroke-opacity:1">
      <path
         id="path4772"
         stroke-linejoin="mitter"
         d="m 672.34457,350.82447 -0.0931,-0.0925 -1.54718,-1.53628 -1.54739,-1.53627 -1.54718,-1.53627 -1.54717,-1.53606 -1.54718,-1.53627 -1.54739,-1.53628 -1.54718,-1.53627 -1.54717,-1.53628 -1.54718,-1.53627 -1.54717,-1.53606 -1.5474,-1.53627 -1.54717,-1.53627 -1.54718,-1.53628 -1.54718,-1.53627 -1.54717,-1.53628 -1.5474,-1.53605 -0.93079,-0.92425 h 2.18035 2.18035 2.18035 2.18035 2.18035 0.70861 l 1.89538,1.07774 1.89516,1.07797 1.89538,1.07775 1.89538,1.07796 1.89515,1.07775 1.89538,1.07774 1.89538,1.07797 1.89516,1.07774 1.89538,1.07797 1.89516,1.07775 1.89537,1.07796 1.89538,1.07775 1.89516,1.07796 1.89538,1.07775 1.89538,1.07775 1.89516,1.07796 1.89537,1.07775 1.89538,1.07796 1.89516,1.07775 1.89538,1.07796 1.89538,1.07775 1.89516,1.07796 1.89537,1.07775 1.25501,0.71363 0.008,0.005 0.15481,0.0879 h 2.18035 2.18034 2.18035 2.18035 2.18035 2.18035 2.18035 2.18035 2.18035 2.18035 2.39141 l 2.12191,0.50169 2.12192,0.5017 0.10247,0.0242 2.05367,0.73173 1.04134,0.37109 1.9017,1.06663 0.39224,0.21978 1.81362,1.21031 0.46986,0.31376 0.93276,0.63622 0.64647,0.70382 0.67613,1.21053 v 1.24956 l -0.67613,1.21053 -0.64647,0.70403 -0.93276,0.63623 -1.81361,1.21031 -0.46987,0.31353 -1.9017,1.06641 -0.39224,0.22 -2.05389,0.73194 -1.04112,0.3711 -2.12191,0.50148 -2.12192,0.5017 -0.10247,0.0242 h -2.18035 -2.18035 -2.18035 -2.18035 -2.18035 -2.18035 -2.18035 -2.18035 -2.18035 -2.18035 -2.18035 -2.18035 -2.18034 -2.18035 -2.18035 -2.18035 -2.18035 -2.18035 -2.18035 -2.18035 -2.18035 -2.18035 -2.18035 -2.18035 -2.7069 l -2.13849,-0.42495 -2.13848,-0.42473 -2.13871,-0.42495 -2.13848,-0.42495 -2.13849,-0.42474 -2.1387,-0.42495 -2.13849,-0.42495 -2.13849,-0.42495 -0.94344,-0.18729 -2.11341,-0.5368 -2.11319,-0.5368 -2.1132,-0.5368 -2.11319,-0.53659 -2.11341,-0.5368 -2.1132,-0.5368 -2.11319,-0.5368 -2.1132,-0.53659 -1.14599,-0.29108 -0.78776,-2.03317 -0.78776,-2.03296 -0.78776,-2.03317 -0.78798,-2.03296 -0.78776,-2.03318 -0.78776,-2.03296 -0.78776,-2.03295 -0.78776,-2.03318 -0.78776,-2.03296 -0.78798,-2.03317 -0.21999,-0.56798 2.18035,-8.7e-4 2.18034,-10e-4 2.18035,-8.8e-4 0.44196,-2.2e-4 0.98486,0.16179 1.54042,1.54303 1.54042,1.54303 1.54041,1.54304 1.54042,1.54325 1.54042,1.54303 1.54042,1.54303 1.54041,1.54304 1.54042,1.54303 0.24158,0.24202 h 2.18035 2.18035 2.18035 2.18035 2.18035 2.18035 2.18035 2.18035 2.18034 2.18035 1.77241"
         inkscape:connector-curvature="0"
         style="fill:#000000;fill-opacity:1;stroke:#000000;stroke-width:1.1509124;stroke-linecap:butt;stroke-miterlimit:10;stroke-dasharray:none;stroke-opacity:1" />
    </g>
  </g>
  <rect
     id="rect3949-7"
     width="92.971504"
     height="50.020634"
     x="234.01425"
     y="96.965118"
     style="fill:none;fill-opacity:1;stroke:#000000;stroke-width:2.02849722;stroke-miterlimit:10;stroke-dasharray:none;stroke-opacity:1;paint-order:fill markers stroke" />
  <rect
     id="rect3949-6"
     width="92.971504"
     height="50.020634"
     x="19.014248"
     y="176.96512"
     style="fill:none;fill-opacity:1;stroke:#000000;stroke-width:2.02849722;stroke-miterlimit:10;stroke-dasharray:none;stroke-opacity:1;paint-order:fill markers stroke" />
  <g
     inkscape:label="RenderLayer_LineSet"
     id="RenderLayer_LineSet-9"
     transform="matrix(0.87012139,0,0,0.87012145,-422.8298,-101.88509)"
     style="fill:#000000;fill-opacity:1;stroke:#000000;stroke-width:1.1509124;stroke-miterlimit:10;stroke-dasharray:none;stroke-opacity:1">
    <g
       inkscape:label="strokes"
       inkscape:groupmode="layer"
       id="strokes-6"
       style="fill:#000000;fill-opacity:1;stroke:#000000;stroke-width:1.1509124;stroke-miterlimit:10;stroke-dasharray:none;stroke-opacity:1">
      <path
         id="path4772-7"
         stroke-linejoin="mitter"
         d="m 672.34457,350.82447 -0.0931,-0.0925 -1.54718,-1.53628 -1.54739,-1.53627 -1.54718,-1.53627 -1.54717,-1.53606 -1.54718,-1.53627 -1.54739,-1.53628 -1.54718,-1.53627 -1.54717,-1.53628 -1.54718,-1.53627 -1.54717,-1.53606 -1.5474,-1.53627 -1.54717,-1.53627 -1.54718,-1.53628 -1.54718,-1.53627 -1.54717,-1.53628 -1.5474,-1.53605 -0.93079,-0.92425 h 2.18035 2.18035 2.18035 2.18035 2.18035 0.70861 l 1.89538,1.07774 1.89516,1.07797 1.89538,1.07775 1.89538,1.07796 1.89515,1.07775 1.89538,1.07774 1.89538,1.07797 1.89516,1.07774 1.89538,1.07797 1.89516,1.07775 1.89537,1.07796 1.89538,1.07775 1.89516,1.07796 1.89538,1.07775 1.89538,1.07775 1.89516,1.07796 1.89537,1.07775 1.89538,1.07796 1.89516,1.07775 1.89538,1.07796 1.89538,1.07775 1.89516,1.07796 1.89537,1.07775 1.25501,0.71363 0.008,0.005 0.15481,0.0879 h 2.18035 2.18034 2.18035 2.18035 2.18035 2.18035 2.18035 2.18035 2.18035 2.18035 2.39141 l 2.12191,0.50169 2.12192,0.5017 0.10247,0.0242 2.05367,0.73173 1.04134,0.37109 1.9017,1.06663 0.39224,0.21978 1.81362,1.21031 0.46986,0.31376 0.93276,0.63622 0.64647,0.70382 0.67613,1.21053 v 1.24956 l -0.67613,1.21053 -0.64647,0.70403 -0.93276,0.63623 -1.81361,1.21031 -0.46987,0.31353 -1.9017,1.06641 -0.39224,0.22 -2.05389,0.73194 -1.04112,0.3711 -2.12191,0.50148 -2.12192,0.5017 -0.10247,0.0242 h -2.18035 -2.18035 -2.18035 -2.18035 -2.18035 -2.18035 -2.18035 -2.18035 -2.18035 -2.18035 -2.18035 -2.18035 -2.18034 -2.18035 -2.18035 -2.18035 -2.18035 -2.18035 -2.18035 -2.18035 -2.18035 -2.18035 -2.18035 -2.18035 -2.7069 l -2.13849,-0.42495 -2.13848,-0.42473 -2.13871,-0.42495 -2.13848,-0.42495 -2.13849,-0.42474 -2.1387,-0.42495 -2.13849,-0.42495 -2.13849,-0.42495 -0.94344,-0.18729 -2.11341,-0.5368 -2.11319,-0.5368 -2.1132,-0.5368 -2.11319,-0.53659 -2.11341,-0.5368 -2.1132,-0.5368 -2.11319,-0.5368 -2.1132,-0.53659 -1.14599,-0.29108 -0.78776,-2.03317 -0.78776,-2.03296 -0.78776,-2.03317 -0.78798,-2.03296 -0.78776,-2.03318 -0.78776,-2.03296 -0.78776,-2.03295 -0.78776,-2.03318 -0.78776,-2.03296 -0.78798,-2.03317 -0.21999,-0.56798 2.18035,-8.7e-4 2.18034,-10e-4 2.18035,-8.8e-4 0.44196,-2.2e-4 0.98486,0.16179 1.54042,1.54303 1.54042,1.54303 1.54041,1.54304 1.54042,1.54325 1.54042,1.54303 1.54042,1.54303 1.54041,1.54304 1.54042,1.54303 0.24158,0.24202 h 2.18035 2.18035 2.18035 2.18035 2.18035 2.18035 2.18035 2.18035 2.18034 2.18035 1.77241"
         inkscape:connector-curvature="0"
         style="fill:#000000;fill-opacity:1;stroke:#000000;stroke-width:1.1509124;stroke-linecap:butt;stroke-miterlimit:10;stroke-dasharray:none;stroke-opacity:1" />
    </g>
  </g>
  <rect
     id="rect3949-7-5"
     width="92.971504"
     height="50.020634"
     x="234.01425"
     y="176.96512"
     style="fill:none;fill-opacity:1;stroke:#000000;stroke-width:2.02849722;stroke-miterlimit:10;stroke-dasharray:none;stroke-opacity:1;paint-order:fill markers stroke" />
  <rect
     id="rect3949-77"
     width="92.971504"
     height="50.020634"
     x="19.014248"
     y="256.96512"
     style="fill:none;fill-opacity:1;stroke:#000000;stroke-width:2.02849722;stroke-miterlimit:10;stroke-dasharray:none;stroke-opacity:1;paint-order:fill markers stroke" />
  <g
     inkscape:label="RenderLayer_LineSet"
     id="RenderLayer_LineSet-3"
     transform="matrix(0.87012143,0,0,0.87012145,-422.82984,-21.885196)"
     style="fill:#000000;fill-opacity:1;stroke:#000000;stroke-width:1.1509124;stroke-miterlimit:10;stroke-dasharray:none;stroke-opacity:1">
    <g
       inkscape:label="strokes"
       inkscape:groupmode="layer"
       id="strokes-2"
       style="fill:#000000;fill-opacity:1;stroke:#000000;stroke-width:1.1509124;stroke-miterlimit:10;stroke-dasharray:none;stroke-opacity:1">
      <path
         id="path4772-3"
         stroke-linejoin="mitter"
         d="m 672.34457,350.82447 -0.0931,-0.0925 -1.54718,-1.53628 -1.54739,-1.53627 -1.54718,-1.53627 -1.54717,-1.53606 -1.54718,-1.53627 -1.54739,-1.53628 -1.54718,-1.53627 -1.54717,-1.53628 -1.54718,-1.53627 -1.54717,-1.53606 -1.5474,-1.53627 -1.54717,-1.53627 -1.54718,-1.53628 -1.54718,-1.53627 -1.54717,-1.53628 -1.5474,-1.53605 -0.93079,-0.92425 h 2.18035 2.18035 2.18035 2.18035 2.18035 0.70861 l 1.89538,1.07774 1.89516,1.07797 1.89538,1.07775 1.89538,1.07796 1.89515,1.07775 1.89538,1.07774 1.89538,1.07797 1.89516,1.07774 1.89538,1.07797 1.89516,1.07775 1.89537,1.07796 1.89538,1.07775 1.89516,1.07796 1.89538,1.07775 1.89538,1.07775 1.89516,1.07796 1.89537,1.07775 1.89538,1.07796 1.89516,1.07775 1.89538,1.07796 1.89538,1.07775 1.89516,1.07796 1.89537,1.07775 1.25501,0.71363 0.008,0.005 0.15481,0.0879 h 2.18035 2.18034 2.18035 2.18035 2.18035 2.18035 2.18035 2.18035 2.18035 2.18035 2.39141 l 2.12191,0.50169 2.12192,0.5017 0.10247,0.0242 2.05367,0.73173 1.04134,0.37109 1.9017,1.06663 0.39224,0.21978 1.81362,1.21031 0.46986,0.31376 0.93276,0.63622 0.64647,0.70382 0.67613,1.21053 v 1.24956 l -0.67613,1.21053 -0.64647,0.70403 -0.93276,0.63623 -1.81361,1.21031 -0.46987,0.31353 -1.9017,1.06641 -0.39224,0.22 -2.05389,0.73194 -1.04112,0.3711 -2.12191,0.50148 -2.12192,0.5017 -0.10247,0.0242 h -2.18035 -2.18035 -2.18035 -2.18035 -2.18035 -2.18035 -2.18035 -2.18035 -2.18035 -2.18035 -2.18035 -2.18035 -2.18034 -2.18035 -2.18035 -2.18035 -2.18035 -2.18035 -2.18035 -2.18035 -2.18035 -2.18035 -2.18035 -2.18035 -2.7069 l -2.13849,-0.42495 -2.13848,-0.42473 -2.13871,-0.42495 -2.13848,-0.42495 -2.13849,-0.42474 -2.1387,-0.42495 -2.13849,-0.42495 -2.13849,-0.42495 -0.94344,-0.18729 -2.11341,-0.5368 -2.11319,-0.5368 -2.1132,-0.5368 -2.11319,-0.53659 -2.11341,-0.5368 -2.1132,-0.5368 -2.11319,-0.5368 -2.1132,-0.53659 -1.14599,-0.29108 -0.78776,-2.03317 -0.78776,-2.03296 -0.78776,-2.03317 -0.78798,-2.03296 -0.78776,-2.03318 -0.78776,-2.03296 -0.78776,-2.03295 -0.78776,-2.03318 -0.78776,-2.03296 -0.78798,-2.03317 -0.21999,-0.56798 2.18035,-8.7e-4 2.18034,-10e-4 2.18035,-8.8e-4 0.44196,-2.2e-4 0.98486,0.16179 1.54042,1.54303 1.54042,1.54303 1.54041,1.54304 1.54042,1.54325 1.54042,1.54303 1.54042,1.54303 1.54041,1.54304 1.54042,1.54303 0.24158,0.24202 h 2.18035 2.18035 2.18035 2.18035 2.18035 2.18035 2.18035 2.18035 2.18034 2.18035 1.77241"
         inkscape:connector-curvature="0"
         style="fill:#000000;fill-opacity:1;stroke:#000000;stroke-width:1.1509124;stroke-linecap:butt;stroke-miterlimit:10;stroke-dasharray:none;stroke-opacity:1" />
    </g>
  </g>
  <rect
     id="rect3949-7-4"
     width="92.971504"
     height="50.020634"
     x="234.01425"
     y="256.96512"
     style="fill:none;fill-opacity:1;stroke:#000000;stroke-width:2.02849722;stroke-miterlimit:10;stroke-dasharray:none;stroke-opacity:1;paint-order:fill markers stroke" />
</svg>
